<svg id="Layer_1" data-name="Layer 1" xmlns="http://www.w3.org/2000/svg" viewBox="0 0 465.43 81.36"><defs><style>.cls-1{fill:#fff}.cls-2{opacity:.5}</style></defs><title>radius-logo-white</title><path class="cls-1" d="M21.06 52v27.49H3.67V1.86h37.26c20.34 0 27 11 27 25.15 0 9.32-3.42 18.79-13 22.51l16 30H50.71L37.82 52H21.06zm18.32-34.77H21.06v19.41h18.32c8.54-.16 10.25-4.81 10.25-9.63s-1.71-9.78-10.25-9.78zm98.89 46.58h-30.43l-5.59 15.68H83.3l31.52-79h16.46l31.52 79h-18.94zm-15.22-43.47l-10.71 30.59h21.43zm73.13 43.78V17.23h10a114 114 0 0 1 4.32-15.34h-31.71v77.6h31.71a114 114 0 0 1-4.32-15.34h-10zM469.1 56.2c0-15.08-5.87-20.51-24.76-22.87.15 2.43.24 4.87.24 7.34s-.09 5-.25 7.45c5.42 1.28 7.54 3.58 7.54 8.08 0 5-2.73 8-10 9.15a114 114 0 0 1-4.74 16c23.59-.81 31.97-11.68 31.97-25.15zM465.52 20V4.35C458.85 1.4 446.74 0 439 0h-1.81a114 114 0 0 1 4.65 15.56A76.5 76.5 0 0 1 465.52 20z" transform="translate(-3.67)"/><g class="cls-2"><path class="cls-1" d="M270.73 79.49V1.86h17.39v77.63h-17.39zm42.33-25.61v-52h17.39v50.6c0 9.32 6.52 13.2 17.86 13.2s17.86-3.88 17.86-13.2V1.86h17.39v52c0 17.23-11.49 27.48-35.24 27.48s-35.26-10.23-35.26-27.46zm-64.88-13.2c0-20.41-8.15-34.39-27.47-37.93a105.46 105.46 0 0 0-4.51 15.09c11.07 2.31 14.59 11 14.59 22.84s-3.51 20.53-14.59 22.84a105.46 105.46 0 0 0 4.51 15.09c19.29-3.54 27.47-17.52 27.47-37.93zm158.05 36.17c4.13 1.89 13 3.51 20.45 4.17a105.47 105.47 0 0 0 4.94-15.22c-9.85-.21-19.5-2.28-25.39-4.64v15.69zM405 24.84c0 14.88 6.83 20.05 29.44 22.12.12-2.08.19-4.18.19-6.29q0-4.15-.31-8.21c-8.85-.93-12.39-2.45-12.39-7.62s2.65-8.12 9.78-9a105.45 105.45 0 0 0-4.8-15C411.59 3.45 405 12.12 405 24.84z" transform="translate(-3.67)"/></g></svg>