<svg id="Layer_1" xmlns="http://www.w3.org/2000/svg" viewBox="0 0 493.8 83"><style>.st0{fill:#2b84c6}.st1{fill:#fff}.st2{opacity:.5}</style><path class="st0" d="M51.2 51.1c9.6-3.7 13-13.2 13-22.5 0-14.1-6.7-25.2-27-25.2H0V81h17.4V53.6h16.8L47 81.1h20.2l-16-30zM35.7 38.2H17.4V18.8h18.3c8.5 0 10.2 5 10.2 9.8.1 4.8-1.6 9.5-10.2 9.6zm91.9-36.1h-16.5l-31.5 79h19l5.6-15.7h30.4l5.6 15.7h18.9l-31.5-79zm-18.9 50.4l10.7-30.6 10.7 30.6h-21.4zm83.8-33.7v46.9h10c1.1 5.3 2.5 10.4 4.3 15.3h-31.7V3.5h31.7c-1.8 5-3.2 10.1-4.3 15.4h-10zm52 23.5c0 20.4-8.1 34.4-27.5 37.9-1.9-4.9-3.4-9.9-4.5-15.1 11.1-2.3 14.6-11 14.6-22.8s-3.5-20.5-14.6-22.8c1.1-5.2 2.6-10.2 4.5-15.1 19.4 3.5 27.5 17.5 27.5 37.9zm22.6-38.8h17.4v77.6h-17.4zm95.4 0h17.4v52c0 17.2-11.5 27.5-35.2 27.5-23.8 0-35.2-10.2-35.2-27.5v-52h17.4v50.6c0 9.3 6.5 13.2 17.9 13.2 11.3 0 17.8-3.9 17.8-13.2V3.5zm40.1 59.3c5.9 2.4 15.5 4.4 25.4 4.6-1.3 5.2-2.9 10.3-4.9 15.2-7.4-.7-16.3-2.3-20.5-4.2V62.8zm28-28.7c.2 2.7.3 5.5.3 8.2 0 2.1-.1 4.2-.2 6.3-22.6-2.1-29.4-7.2-29.4-22.1 0-12.7 6.6-21.4 21.9-24 2 4.8 3.6 9.9 4.8 15-7.1.9-9.8 3.7-9.8 9 0 5.1 3.6 6.6 12.4 7.6zm34.8 23.7c0 13.5-8.4 24.3-31.9 25.1 2-5.2 3.5-10.5 4.7-16 7.2-1.1 10-4.2 10-9.1 0-4.5-2.1-6.8-7.5-8.1.1-2.5.2-5 .2-7.5s-.1-4.9-.2-7.3c18.9 2.4 24.7 7.8 24.7 22.9zm-27.2-40.6c-1.2-5.3-2.8-10.5-4.7-15.6h1.8c7.8 0 19.9 1.4 26.5 4.3v15.7c-6.2-2.4-14.6-4.1-23.6-4.4zm48-2l1.3 2h-2.1l-.9-1.6-1.8-2.4c-.3-.2-.8-.4-1.4-.4h-1v4.4h-1.7V6.8h3.6c1.2 0 2.1.1 2.7.3.5.2 1 .5 1.3 1 .3.5.5 1 .5 1.5 0 .8-.3 1.4-.8 2-.5.6-1.3.9-2.2 1 .4.2.7.3.9.5.5.4 1 1.1 1.6 2.1z"/><path class="st0" d="M491.4 7c-.9-1.6-2.1-2.8-3.6-3.6-1.6-.8-3.1-1.3-4.8-1.3s-3.2.4-4.8 1.3c-1.6.8-2.8 2-3.6 3.6-.9 1.5-1.3 3.2-1.3 4.9 0 1.7.4 3.3 1.3 4.8.8 1.5 2 2.7 3.6 3.6 1.5.9 3.2 1.3 4.8 1.3s3.3-.4 4.8-1.3 2.7-2.1 3.6-3.6c.9-1.5 1.3-3.2 1.3-4.8 0-1.7-.5-3.3-1.3-4.9zm-1.4 8.9c-.7 1.3-1.7 2.3-3 3-1.3.7-2.6 1.1-4 1.1s-2.7-.4-4-1.1c-1.3-.7-2.3-1.7-3-3-.7-1.3-1.1-2.6-1.1-4s.4-2.8 1.1-4.1 1.7-2.3 3-3c1.3-.7 2.6-1 4-1 1.3 0 2.7.3 4 1 1.3.7 2.3 1.7 3 3 .7 1.3 1.1 2.7 1.1 4.1 0 1.4-.4 2.7-1.1 4z"/><path class="st1" d="M484.7 8.9c-.2-.2-.4-.4-.7-.5l-3.6-.2v3.1h2c1 0 1.6-.1 2-.4.4-.3.5-.7.5-1.1.1-.3 0-.6-.2-.9zm1.5 6.3c-.6-1-1.1-1.7-1.5-2.1-.2-.2-.5-.4-.9-.5.9-.1 1.6-.4 2.2-1 .6-.6.8-1.2.8-2 0-.5-.2-1.1-.5-1.5-.3-.5-.8-.8-1.3-1-.6-.2-1.4-.3-2.7-.3h-3.6v10.5h1.7v-4.4h1c.6 0 1 .1 1.4.4l1.8 2.4.9 1.6h2.1l-1.4-2.1zm0 0c-.6-1-1.1-1.7-1.5-2.1-.2-.2-.5-.4-.9-.5.9-.1 1.6-.4 2.2-1 .6-.6.8-1.2.8-2 0-.5-.2-1.1-.5-1.5-.3-.5-.8-.8-1.3-1-.6-.2-1.4-.3-2.7-.3h-3.6v10.5h1.7v-4.4h1c.6 0 1 .1 1.4.4l1.8 2.4.9 1.6h2.1l-1.4-2.1zm-1.5-6.3c-.2-.2-.4-.4-.7-.5-.3-.1-.9-.2-1.7-.2h-1.9v3.1h2c1 0 1.6-.1 2-.4.4-.3.5-.7.5-1.1.1-.3 0-.6-.2-.9zm1.5 6.3c-.6-1-1.1-1.7-1.5-2.1-.2-.2-.5-.4-.9-.5.9-.1 1.6-.4 2.2-1 .6-.6.8-1.2.8-2 0-.5-.2-1.1-.5-1.5-.3-.5-.8-.8-1.3-1-.6-.2-1.4-.3-2.7-.3h-3.6v10.5h1.7v-4.4h1c.6 0 1 .1 1.4.4l1.8 2.4.9 1.6h2.1l-1.4-2.1zm0 0c-.6-1-1.1-1.7-1.5-2.1-.2-.2-.5-.4-.9-.5.9-.1 1.6-.4 2.2-1 .6-.6.8-1.2.8-2 0-.5-.2-1.1-.5-1.5-.3-.5-.8-.8-1.3-1-.6-.2-1.4-.3-2.7-.3h-3.6v10.5h1.7v-4.4h1c.6 0 1 .1 1.4.4l1.8 2.4.9 1.6h2.1l-1.4-2.1zm5.2-8.2c-.9-1.6-2.1-2.8-3.6-3.6-1.6-.8-3.1-1.3-4.8-1.3s-3.2.4-4.8 1.3c-1.6.8-2.8 2-3.6 3.6-.9 1.5-1.3 3.2-1.3 4.9 0 1.7.4 3.3 1.3 4.8.8 1.5 2 2.7 3.6 3.6 1.5.9 3.2 1.3 4.8 1.3s3.3-.4 4.8-1.3 2.7-2.1 3.6-3.6c.9-1.5 1.3-3.2 1.3-4.8 0-1.7-.5-3.3-1.3-4.9zm-1.4 8.9c-.7 1.3-1.7 2.3-3 3-1.3.7-2.6 1.1-4 1.1s-2.7-.4-4-1.1c-1.3-.7-2.3-1.7-3-3-.7-1.3-1.1-2.6-1.1-4s.4-2.8 1.1-4.1 1.7-2.3 3-3c1.3-.7 2.6-1 4-1 1.3 0 2.7.3 4 1 1.3.7 2.3 1.7 3 3 .7 1.3 1.1 2.7 1.1 4.1 0 1.4-.4 2.7-1.1 4zm-5.3-2.8c-.2-.2-.5-.4-.9-.5.9-.1 1.6-.4 2.2-1 .6-.6.8-1.2.8-2 0-.5-.2-1.1-.5-1.5-.3-.5-.8-.8-1.3-1-.6-.2-1.4-.3-2.7-.3h-3.6v10.5h1.7v-4.4h1c.6 0 1 .1 1.4.4l1.8 2.4.9 1.6h2.1l-1.3-2c-.7-1.1-1.2-1.8-1.6-2.2zm0-4.2c-.2-.2-.4-.4-.7-.5-.3-.1-.9-.2-1.7-.2h-1.9v3.1h2c1 0 1.6-.1 2-.4.4-.3.5-.7.5-1.1.1-.3 0-.6-.2-.9zm1.5 6.3c-.6-1-1.1-1.7-1.5-2.1-.2-.2-.5-.4-.9-.5.9-.1 1.6-.4 2.2-1 .6-.6.8-1.2.8-2 0-.5-.2-1.1-.5-1.5-.3-.5-.8-.8-1.3-1-.6-.2-1.4-.3-2.7-.3h-3.6v10.5h1.7v-4.4h1c.6 0 1 .1 1.4.4l1.8 2.4.9 1.6h2.1l-1.4-2.1zm-1.5-6.3c-.2-.2-.4-.4-.7-.5-.3-.1-.9-.2-1.7-.2h-1.9v3.1h2c1 0 1.6-.1 2-.4.4-.3.5-.7.5-1.1.1-.3 0-.6-.2-.9zm1.5 6.3c-.6-1-1.1-1.7-1.5-2.1-.2-.2-.5-.4-.9-.5.9-.1 1.6-.4 2.2-1 .6-.6.8-1.2.8-2 0-.5-.2-1.1-.5-1.5-.3-.5-.8-.8-1.3-1-.6-.2-1.4-.3-2.7-.3h-3.6v10.5h1.7v-4.4h1c.6 0 1 .1 1.4.4l1.8 2.4.9 1.6h2.1l-1.4-2.1zm-1.5-6.3c-.2-.2-.4-.4-.7-.5-.3-.1-.9-.2-1.7-.2h-1.9v3.1h2c1 0 1.6-.1 2-.4.4-.3.5-.7.5-1.1.1-.3 0-.6-.2-.9zm1.5 6.3c-.6-1-1.1-1.7-1.5-2.1-.2-.2-.5-.4-.9-.5.9-.1 1.6-.4 2.2-1 .6-.6.8-1.2.8-2 0-.5-.2-1.1-.5-1.5-.3-.5-.8-.8-1.3-1-.6-.2-1.4-.3-2.7-.3h-3.6v10.5h1.7v-4.4h1c.6 0 1 .1 1.4.4l1.8 2.4.9 1.6h2.1l-1.4-2.1zm-1.5-6.3c-.2-.2-.4-.4-.7-.5-.3-.1-.9-.2-1.7-.2h-1.9v3.1h2c1 0 1.6-.1 2-.4.4-.3.5-.7.5-1.1.1-.3 0-.6-.2-.9zm1.5 6.3c-.6-1-1.1-1.7-1.5-2.1-.2-.2-.5-.4-.9-.5.9-.1 1.6-.4 2.2-1 .6-.6.8-1.2.8-2 0-.5-.2-1.1-.5-1.5-.3-.5-.8-.8-1.3-1-.6-.2-1.4-.3-2.7-.3h-3.6v10.5h1.7v-4.4h1c.6 0 1 .1 1.4.4l1.8 2.4.9 1.6h2.1l-1.4-2.1zm-435 35.9c9.6-3.7 13-13.2 13-22.5 0-14.1-6.7-25.2-27-25.2H0V81h17.4V53.6h16.8L47 81.1h20.2l-16-30zM35.7 38.2H17.4V18.8h18.3c8.5 0 10.2 5 10.2 9.8.1 4.8-1.6 9.5-10.2 9.6zm91.9-36.1h-16.5l-31.5 79h19l5.6-15.7h30.4l5.6 15.7h18.9l-31.5-79zm-18.9 50.4l10.7-30.6 10.7 30.6h-21.4zm93.8 13.2c1.1 5.3 2.5 10.4 4.3 15.3h-31.7V3.5h31.7c-1.8 5-3.2 10.1-4.3 15.4h-10v46.9h10zm262.9-7.9c0 13.5-8.4 24.3-31.9 25.1 2-5.2 3.5-10.5 4.7-16 7.2-1.1 10-4.2 10-9.1 0-4.5-2.1-6.8-7.5-8.1.1-2.5.2-5 .2-7.5s-.1-4.9-.2-7.3c18.9 2.4 24.7 7.8 24.7 22.9zm-3.5-51.9v15.7c-6.3-2.4-14.6-4.1-23.7-4.4-1.2-5.3-2.8-10.5-4.7-15.6h1.8c7.8 0 19.9 1.4 26.6 4.3z"/><g class="st2"><path class="st1" d="M267.1 3.5v77.6h17.4V3.5h-17.4zm95.4 0v50.6c0 9.3-6.5 13.2-17.8 13.2s-17.9-3.9-17.9-13.2V3.5h-17.4v52c0 17.2 11.5 27.5 35.2 27.5 23.8 0 35.2-10.2 35.2-27.5v-52h-17.3zm-118 38.8c0 20.4-8.1 34.4-27.5 37.9-1.9-4.9-3.4-9.9-4.5-15.1 11.1-2.3 14.6-11 14.6-22.8s-3.5-20.5-14.6-22.8c1.1-5.2 2.6-10.2 4.5-15.1 19.4 3.5 27.5 17.5 27.5 37.9zM428 67.4c-1.3 5.2-2.9 10.3-4.9 15.2-7.4-.7-16.3-2.3-20.5-4.2V62.8c5.8 2.3 15.5 4.4 25.4 4.6zm2.9-25.1c0 2.1-.1 4.2-.2 6.3-22.6-2.1-29.4-7.2-29.4-22.1 0-12.7 6.6-21.4 21.9-24 2 4.8 3.6 9.9 4.8 15-7.1.9-9.8 3.7-9.8 9 0 5.2 3.5 6.7 12.4 7.6.2 2.7.3 5.4.3 8.2z"/></g></svg>