<svg id="Layer_1" xmlns="http://www.w3.org/2000/svg" viewBox="0 0 470.5 84.5"><style>.st0{fill:#2b84c6}.st1{opacity:.7}</style><path class="st0" d="M21.1 53.8v27.5H3.7V3.7H41c20.3 0 27 11 27 25.2 0 9.3-3.4 18.8-13 22.5l16 30H50.7L37.8 53.8H21.1zm18.3-34.7H21.1v19.4h18.3c8.5-.2 10.2-4.8 10.2-9.6 0-4.9-1.7-9.8-10.2-9.8zm98.9 46.5h-30.4l-5.6 15.7h-19l31.5-79h16.5l31.5 79h-18.9l-5.6-15.7zm-15.2-43.4l-10.7 30.6h21.4l-10.7-30.6zm73.1 43.7V19.1h10c1.1-5.3 2.5-10.4 4.3-15.3h-31.7v77.6h31.7c-1.8-5-3.2-10.1-4.3-15.3h-10zM469.1 58c0-15.1-5.9-20.5-24.8-22.9.2 2.4.2 4.9.2 7.3 0 2.5-.1 5-.2 7.4 5.4 1.3 7.5 3.6 7.5 8.1 0 5-2.7 8-10 9.1-1.2 5.5-2.8 10.8-4.7 16 23.6-.6 32-11.5 32-25zm-3.6-36.1V6.2c-6.7-3-18.8-4.3-26.5-4.3h-1.8c1.9 5 3.5 10.2 4.7 15.6 9 .2 17.3 2 23.6 4.4z"/><g class="st1"><path class="st0" d="M270.7 81.3V3.7h17.4v77.6h-17.4zm42.4-25.6v-52h17.4v50.6c0 9.3 6.5 13.2 17.9 13.2 11.3 0 17.9-3.9 17.9-13.2V3.7h17.4v52c0 17.2-11.5 27.5-35.2 27.5-23.9 0-35.4-10.3-35.4-27.5zm-64.9-13.2c0-20.4-8.1-34.4-27.5-37.9-1.9 4.9-3.4 9.9-4.5 15.1 11.1 2.3 14.6 11 14.6 22.8s-3.5 20.5-14.6 22.8c1.1 5.2 2.6 10.2 4.5 15.1 19.3-3.5 27.5-17.5 27.5-37.9zm158 36.2c4.1 1.9 13 3.5 20.5 4.2 2-4.9 3.7-10 4.9-15.2-9.8-.2-19.5-2.3-25.4-4.6v15.6zm-1.2-52c0 14.9 6.8 20.1 29.4 22.1.1-2.1.2-4.2.2-6.3 0-2.8-.1-5.5-.3-8.2-8.9-.9-12.4-2.5-12.4-7.6 0-5.3 2.7-8.1 9.8-9-1.2-5.2-2.8-10.2-4.8-15-15.3 2.6-21.9 11.2-21.9 24z"/></g></svg>