<svg width="104" height="104" viewBox="0 0 104 104" xmlns="http://www.w3.org/2000/svg"><title>Artboard Copy 2</title><g fill="none" fill-rule="evenodd"><circle fill="#ECEFF1" cx="52" cy="52" r="52"/><path d="M74.512 68.845L60.868 56.038C62.815 53.164 64 49.732 64 46c0-9.939-8.06-18-18-18-9.939 0-18 8.061-18 18 0 9.94 8.061 18 18 18 4.092 0 7.833-1.413 10.857-3.717l11.991 14.23c1.656 1.838 4.36 1.994 6.01.344 1.65-1.65 1.493-4.356-.346-6.012zM46 58c-6.627 0-12-5.373-12-12s5.373-12 12-12 12 5.373 12 12-5.373 12-12 12z" fill="#C4CACE"/></g></svg>