<svg width="32" height="32" viewBox="0 0 32 32" xmlns="http://www.w3.org/2000/svg" xmlns:xlink="http://www.w3.org/1999/xlink"><title>search</title><defs><path id="a" d="M29.35 29.349H0V0h29.35z"/></defs><g transform="translate(1 1)" fill="none" fill-rule="evenodd"><mask id="b" fill="#fff"><use xlink:href="#a"/></mask><path d="M4.7 15.832C1.63 12.762 1.63 7.77 4.7 4.7a7.848 7.848 0 0 1 5.567-2.302A7.85 7.85 0 0 1 15.833 4.7c3.07 3.07 3.07 8.063 0 11.132a7.819 7.819 0 0 1-5.566 2.306 7.822 7.822 0 0 1-5.566-2.306m24.07 10.392l-10.42-9.633c3.154-4.027 2.886-9.881-.821-13.588C13.525-1 7.01-1 3.004 3.003c-4.005 4.005-4.005 10.522 0 14.526a10.205 10.205 0 0 0 7.263 3.009c2.325 0 4.526-.774 6.326-2.187l9.632 10.419a1.798 1.798 0 0 0 2.646 0c.676-.73.63-1.87-.1-2.546" fill="#000" mask="url(#b)"/></g></svg>