<?xml version="1.0" encoding="UTF-8"?>
<svg width="32px" height="32px" viewBox="0 0 32 32" version="1.1" xmlns="http://www.w3.org/2000/svg" xmlns:xlink="http://www.w3.org/1999/xlink">
    <!-- Generator: Sketch 42 (36781) - http://www.bohemiancoding.com/sketch -->
    <title>error</title>
    <desc>Created with Sketch.</desc>
    <defs></defs>
    <g id="assets" stroke="none" stroke-width="1" fill="none" fill-rule="evenodd">
        <g id="error" fill="#000000">
            <path d="M16,31 C7.71572875,31 1,24.2842712 1,16 C1,7.71572875 7.71572875,1 16,1 C24.2842712,1 31,7.71572875 31,16 C31,24.2842712 24.2842712,31 16,31 Z M16.6506849,18.7465753 L17.2157534,9.5 L14.7842466,9.5 L15.3493151,18.7465753 L16.6506849,18.7465753 Z M14.75,21.2979452 C14.75,21.9828767 15.3150685,22.5479452 16,22.5479452 C16.6849315,22.5479452 17.25,21.9828767 17.25,21.2979452 C17.25,20.6130137 16.6849315,20.0479452 16,20.0479452 C15.3150685,20.0479452 14.75,20.6130137 14.75,21.2979452 Z" id="Combined-Shape"></path>
        </g>
    </g>
</svg>