<?xml version="1.0" encoding="UTF-8"?>
<svg width="16px" height="16px" viewBox="0 0 16 16" version="1.1" xmlns="http://www.w3.org/2000/svg" xmlns:xlink="http://www.w3.org/1999/xlink">
    <!-- Generator: Sketch 42 (36781) - http://www.bohemiancoding.com/sketch -->
    <title>Artboard Copy 3</title>
    <desc>Created with Sketch.</desc>
    <defs></defs>
    <g id="Styles" stroke="none" stroke-width="1" fill="none" fill-rule="evenodd">
        <g id="Artboard-Copy-3" fill="#F15C17">
            <path d="M8,16 C3.581722,16 0,12.418278 0,8 C0,3.581722 3.581722,0 8,0 C12.418278,0 16,3.581722 16,8 C16,12.418278 12.418278,16 8,16 Z M8.34703196,9.46484018 L8.64840183,4.53333333 L7.35159817,4.53333333 L7.65296804,9.46484018 L8.34703196,9.46484018 Z M7.33333333,10.8255708 C7.33333333,11.1908676 7.6347032,11.4922374 8,11.4922374 C8.3652968,11.4922374 8.66666667,11.1908676 8.66666667,10.8255708 C8.66666667,10.460274 8.3652968,10.1589041 8,10.1589041 C7.6347032,10.1589041 7.33333333,10.460274 7.33333333,10.8255708 Z" id="Combined-Shape"></path>
        </g>
    </g>
</svg>