<svg id="Layer_1" data-name="Layer 1" xmlns="http://www.w3.org/2000/svg" xmlns:xlink="http://www.w3.org/1999/xlink" viewBox="0 0 301.23 301.23"><defs><style>.cls-1{fill:url(#linear-gradient);}.cls-2{fill:url(#linear-gradient-2);}</style><linearGradient id="linear-gradient" x1="125.41" y1="141.14" x2="183.31" y2="90.06" gradientUnits="userSpaceOnUse"><stop offset="0" stop-color="#34a5de"/><stop offset="1" stop-color="#4053a4"/></linearGradient><linearGradient id="linear-gradient-2" x1="39.24" y1="248.86" x2="302.24" y2="16.86" xlink:href="#linear-gradient"/></defs><title>rad-logo-r-gradient</title><path class="cls-1" d="M163.92,98.95H124.46v41.81h39.47C182.32,140.42,186,130.39,186,120S182.32,98.95,163.92,98.95Z" transform="translate(0 0)"/><path class="cls-2" d="M150.62,0A150.62,150.62,0,1,0,301.23,150.62,150.62,150.62,0,0,0,150.62,0Zm37.73,233.07-27.76-59.2H124.46v59.2H87V65.84h80.27c43.82,0,58.2,23.75,58.2,54.18,0,20.07-7.36,40.47-28.09,48.5l34.45,64.55H188.34Z" transform="translate(0 0)"/></svg>