<?xml version="1.0" encoding="utf-8"?>
<!-- Generator: Adobe Illustrator 19.2.1, SVG Export Plug-In . SVG Version: 6.00 Build 0)  -->
<!DOCTYPE svg PUBLIC "-//W3C//DTD SVG 1.1//EN" "http://www.w3.org/Graphics/SVG/1.1/DTD/svg11.dtd">
<svg version="1.1" id="Layer_1" xmlns="http://www.w3.org/2000/svg" xmlns:xlink="http://www.w3.org/1999/xlink" x="0px" y="0px"
	 viewBox="0 0 470.5 84.5" style="enable-background:new 0 0 470.5 84.5;" xml:space="preserve">
<style type="text/css">
	.st0{fill:#2B84C6;}
	.st1{opacity:0.7;}
</style>
<g>
	<path class="st0" d="M21.1,53.8v27.5H3.7V3.7h37.3c20.3,0,27,11,27,25.2c0,9.3-3.4,18.8-13,22.5l16,30H50.7L37.8,53.8H21.1z
		 M39.4,19.1H21.1v19.4h18.3c8.5-0.2,10.2-4.8,10.2-9.6C49.6,24,47.9,19.1,39.4,19.1z"/>
	<path class="st0" d="M138.3,65.6h-30.4l-5.6,15.7H83.3l31.5-79h16.5l31.5,79h-18.9L138.3,65.6z M123.1,22.2l-10.7,30.6h21.4
		L123.1,22.2z"/>
	<path class="st0" d="M196.2,65.9V19.1h10c1.1-5.3,2.5-10.4,4.3-15.3c-0.5,0-1,0-1.6,0h-30.1v77.6h30.1c0.5,0,1.1,0,1.6,0
		c-1.8-5-3.2-10.1-4.3-15.3H196.2z"/>
	<path class="st0" d="M469.1,58c0-15.1-5.9-20.5-24.8-22.9c0.2,2.4,0.2,4.9,0.2,7.3c0,2.5-0.1,5-0.2,7.4c5.4,1.3,7.5,3.6,7.5,8.1
		c0,5-2.7,8-10,9.1c-1.2,5.5-2.8,10.8-4.7,16C460.7,82.4,469.1,71.5,469.1,58z"/>
	<path class="st0" d="M465.5,21.9V6.2c-6.7-3-18.8-4.3-26.5-4.3c-0.6,0-1.2,0-1.8,0c1.9,5,3.5,10.2,4.7,15.6
		C450.9,17.7,459.2,19.5,465.5,21.9z"/>
	<g class="st1">
		<path class="st0" d="M270.7,81.3V3.7h17.4v77.6H270.7z"/>
		<path class="st0" d="M313.1,55.7v-52h17.4v50.6c0,9.3,6.5,13.2,17.9,13.2c11.3,0,17.9-3.9,17.9-13.2V3.7h17.4v52
			c0,17.2-11.5,27.5-35.2,27.5C324.6,83.2,313.1,72.9,313.1,55.7z"/>
		<path class="st0" d="M248.2,42.5c0-20.4-8.1-34.4-27.5-37.9c-1.9,4.9-3.4,9.9-4.5,15.1c11.1,2.3,14.6,11,14.6,22.8
			c0,11.8-3.5,20.5-14.6,22.8c1.1,5.2,2.6,10.2,4.5,15.1C240,76.9,248.2,62.9,248.2,42.5z"/>
		<path class="st0" d="M406.2,78.7c4.1,1.9,13,3.5,20.5,4.2c2-4.9,3.7-10,4.9-15.2c-9.8-0.2-19.5-2.3-25.4-4.6V78.7z"/>
		<path class="st0" d="M405,26.7c0,14.9,6.8,20.1,29.4,22.1c0.1-2.1,0.2-4.2,0.2-6.3c0-2.8-0.1-5.5-0.3-8.2
			c-8.9-0.9-12.4-2.5-12.4-7.6c0-5.3,2.7-8.1,9.8-9c-1.2-5.2-2.8-10.2-4.8-15C411.6,5.3,405,13.9,405,26.7z"/>
	</g>
</g>
</svg>
