<?xml version="1.0" encoding="utf-8"?>
<!-- Generator: Adobe Illustrator 19.2.0, SVG Export Plug-In . SVG Version: 6.00 Build 0)  -->
<svg version="1.1" id="Layer_1" xmlns="http://www.w3.org/2000/svg" xmlns:xlink="http://www.w3.org/1999/xlink" x="0px" y="0px"
	 viewBox="0 0 493.8 83" style="enable-background:new 0 0 493.8 83;" xml:space="preserve">
<style type="text/css">
	.st0{fill:#2B84C6;}
	.st1{fill:#FFFFFF;}
	.st2{opacity:0.5;}
</style>
<path class="st0" d="M51.2,51.1c9.6-3.7,13-13.2,13-22.5c0-14.1-6.7-25.2-27-25.2H0v77.6h17.4V53.6h16.8L47,81.1h20.2L51.2,51.1z
	 M35.7,38.2H17.4V18.8h18.3c8.5,0,10.2,5,10.2,9.8C46,33.4,44.3,38.1,35.7,38.2z"/>
<path class="st0" d="M127.6,2.1h-16.5l-31.5,79h19l5.6-15.7h30.4l5.6,15.7h18.9L127.6,2.1z M108.7,52.5l10.7-30.6l10.7,30.6H108.7z"
	/>
<path class="st0" d="M192.5,18.8v46.9h10c1.1,5.3,2.5,10.4,4.3,15.3c-0.5,0-1,0-1.6,0h-30.1V3.5h30.1c0.5,0,1.1,0,1.6,0
	c-1.8,5-3.2,10.1-4.3,15.4H192.5z"/>
<path class="st0" d="M244.5,42.3c0,20.4-8.1,34.4-27.5,37.9c-1.9-4.9-3.4-9.9-4.5-15.1c11.1-2.3,14.6-11,14.6-22.8
	s-3.5-20.5-14.6-22.8c1.1-5.2,2.6-10.2,4.5-15.1C236.4,7.9,244.5,21.9,244.5,42.3z"/>
<rect x="267.1" y="3.5" class="st0" width="17.4" height="77.6"/>
<path class="st0" d="M362.5,3.5h17.4v52c0,17.2-11.5,27.5-35.2,27.5c-23.8,0-35.2-10.2-35.2-27.5v-52h17.4v50.6
	c0,9.3,6.5,13.2,17.9,13.2c11.3,0,17.8-3.9,17.8-13.2V3.5z"/>
<path class="st0" d="M402.6,62.8c5.9,2.4,15.5,4.4,25.4,4.6c-1.3,5.2-2.9,10.3-4.9,15.2c-7.4-0.7-16.3-2.3-20.5-4.2V62.8z"/>
<path class="st0" d="M430.6,34.1c0.2,2.7,0.3,5.5,0.3,8.2c0,2.1-0.1,4.2-0.2,6.3c-22.6-2.1-29.4-7.2-29.4-22.1
	c0-12.7,6.6-21.4,21.9-24c2,4.8,3.6,9.9,4.8,15c-7.1,0.9-9.8,3.7-9.8,9C418.2,31.6,421.8,33.1,430.6,34.1z"/>
<path class="st0" d="M465.4,57.8c0,13.5-8.4,24.3-31.9,25.1c2-5.2,3.5-10.5,4.7-16c7.2-1.1,10-4.2,10-9.1c0-4.5-2.1-6.8-7.5-8.1
	c0.1-2.5,0.2-5,0.2-7.5c0-2.5-0.1-4.9-0.2-7.3C459.6,37.3,465.4,42.7,465.4,57.8z"/>
<path class="st0" d="M438.2,17.2c-1.2-5.3-2.8-10.5-4.7-15.6c0.6,0,1.2,0,1.8,0c7.8,0,19.9,1.4,26.5,4.3v15.7
	C455.6,19.2,447.2,17.5,438.2,17.2z"/>
<path class="st0" d="M486.2,15.2l1.3,2h-2.1l-0.9-1.6l-1.8-2.4c-0.3-0.2-0.8-0.4-1.4-0.4h-1v4.4h-1.7V6.8h3.6c1.2,0,2.1,0.1,2.7,0.3
	c0.5,0.2,1,0.5,1.3,1c0.3,0.5,0.5,1,0.5,1.5c0,0.8-0.3,1.4-0.8,2c-0.5,0.6-1.3,0.9-2.2,1c0.4,0.2,0.7,0.3,0.9,0.5
	C485.1,13.5,485.6,14.2,486.2,15.2z"/>
<path class="st0" d="M491.4,7c-0.9-1.6-2.1-2.8-3.6-3.6c-1.6-0.8-3.1-1.3-4.8-1.3s-3.2,0.4-4.8,1.3c-1.6,0.8-2.8,2-3.6,3.6
	c-0.9,1.5-1.3,3.2-1.3,4.9c0,1.7,0.4,3.3,1.3,4.8c0.8,1.5,2,2.7,3.6,3.6c1.5,0.9,3.2,1.3,4.8,1.3s3.3-0.4,4.8-1.3
	c1.5-0.9,2.7-2.1,3.6-3.6c0.9-1.5,1.3-3.2,1.3-4.8C492.7,10.2,492.2,8.6,491.4,7z M490,15.9c-0.7,1.3-1.7,2.3-3,3
	c-1.3,0.7-2.6,1.1-4,1.1s-2.7-0.4-4-1.1c-1.3-0.7-2.3-1.7-3-3c-0.7-1.3-1.1-2.6-1.1-4c0-1.4,0.4-2.8,1.1-4.1s1.7-2.3,3-3
	c1.3-0.7,2.6-1,4-1c1.3,0,2.7,0.3,4,1c1.3,0.7,2.3,1.7,3,3c0.7,1.3,1.1,2.7,1.1,4.1C491.1,13.3,490.7,14.6,490,15.9z"/>
<g>
	<g>
		<path class="st1" d="M484.7,8.9c-0.2-0.2-0.4-0.4-0.7-0.5l-3.6-0.2v3.1h2c1,0,1.6-0.1,2-0.4c0.4-0.3,0.5-0.7,0.5-1.1
			C485,9.5,484.9,9.2,484.7,8.9z M486.2,15.2c-0.6-1-1.1-1.7-1.5-2.1c-0.2-0.2-0.5-0.4-0.9-0.5c0.9-0.1,1.6-0.4,2.2-1
			c0.6-0.6,0.8-1.2,0.8-2c0-0.5-0.2-1.1-0.5-1.5c-0.3-0.5-0.8-0.8-1.3-1c-0.6-0.2-1.4-0.3-2.7-0.3h-3.6v10.5h1.7v-4.4h1
			c0.6,0,1,0.1,1.4,0.4l1.8,2.4l0.9,1.6h2.1L486.2,15.2z M486.2,15.2c-0.6-1-1.1-1.7-1.5-2.1c-0.2-0.2-0.5-0.4-0.9-0.5
			c0.9-0.1,1.6-0.4,2.2-1c0.6-0.6,0.8-1.2,0.8-2c0-0.5-0.2-1.1-0.5-1.5c-0.3-0.5-0.8-0.8-1.3-1c-0.6-0.2-1.4-0.3-2.7-0.3h-3.6v10.5
			h1.7v-4.4h1c0.6,0,1,0.1,1.4,0.4l1.8,2.4l0.9,1.6h2.1L486.2,15.2z M484.7,8.9c-0.2-0.2-0.4-0.4-0.7-0.5c-0.3-0.1-0.9-0.2-1.7-0.2
			h-1.9v3.1h2c1,0,1.6-0.1,2-0.4c0.4-0.3,0.5-0.7,0.5-1.1C485,9.5,484.9,9.2,484.7,8.9z M486.2,15.2c-0.6-1-1.1-1.7-1.5-2.1
			c-0.2-0.2-0.5-0.4-0.9-0.5c0.9-0.1,1.6-0.4,2.2-1c0.6-0.6,0.8-1.2,0.8-2c0-0.5-0.2-1.1-0.5-1.5c-0.3-0.5-0.8-0.8-1.3-1
			c-0.6-0.2-1.4-0.3-2.7-0.3h-3.6v10.5h1.7v-4.4h1c0.6,0,1,0.1,1.4,0.4l1.8,2.4l0.9,1.6h2.1L486.2,15.2z M486.2,15.2
			c-0.6-1-1.1-1.7-1.5-2.1c-0.2-0.2-0.5-0.4-0.9-0.5c0.9-0.1,1.6-0.4,2.2-1c0.6-0.6,0.8-1.2,0.8-2c0-0.5-0.2-1.1-0.5-1.5
			c-0.3-0.5-0.8-0.8-1.3-1c-0.6-0.2-1.4-0.3-2.7-0.3h-3.6v10.5h1.7v-4.4h1c0.6,0,1,0.1,1.4,0.4l1.8,2.4l0.9,1.6h2.1L486.2,15.2z
			 M491.4,7c-0.9-1.6-2.1-2.8-3.6-3.6c-1.6-0.8-3.1-1.3-4.8-1.3s-3.2,0.4-4.8,1.3c-1.6,0.8-2.8,2-3.6,3.6c-0.9,1.5-1.3,3.2-1.3,4.9
			c0,1.7,0.4,3.3,1.3,4.8c0.8,1.5,2,2.7,3.6,3.6c1.5,0.9,3.2,1.3,4.8,1.3s3.3-0.4,4.8-1.3c1.5-0.9,2.7-2.1,3.6-3.6
			c0.9-1.5,1.3-3.2,1.3-4.8C492.7,10.2,492.2,8.6,491.4,7z M490,15.9c-0.7,1.3-1.7,2.3-3,3c-1.3,0.7-2.6,1.1-4,1.1s-2.7-0.4-4-1.1
			c-1.3-0.7-2.3-1.7-3-3c-0.7-1.3-1.1-2.6-1.1-4c0-1.4,0.4-2.8,1.1-4.1s1.7-2.3,3-3c1.3-0.7,2.6-1,4-1c1.3,0,2.7,0.3,4,1
			c1.3,0.7,2.3,1.7,3,3c0.7,1.3,1.1,2.7,1.1,4.1C491.1,13.3,490.7,14.6,490,15.9z M484.7,13.1c-0.2-0.2-0.5-0.4-0.9-0.5
			c0.9-0.1,1.6-0.4,2.2-1c0.6-0.6,0.8-1.2,0.8-2c0-0.5-0.2-1.1-0.5-1.5c-0.3-0.5-0.8-0.8-1.3-1c-0.6-0.2-1.4-0.3-2.7-0.3h-3.6v10.5
			h1.7v-4.4h1c0.6,0,1,0.1,1.4,0.4l1.8,2.4l0.9,1.6h2.1l-1.3-2C485.6,14.2,485.1,13.5,484.7,13.1z M484.7,8.9
			c-0.2-0.2-0.4-0.4-0.7-0.5c-0.3-0.1-0.9-0.2-1.7-0.2h-1.9v3.1h2c1,0,1.6-0.1,2-0.4c0.4-0.3,0.5-0.7,0.5-1.1
			C485,9.5,484.9,9.2,484.7,8.9z M486.2,15.2c-0.6-1-1.1-1.7-1.5-2.1c-0.2-0.2-0.5-0.4-0.9-0.5c0.9-0.1,1.6-0.4,2.2-1
			c0.6-0.6,0.8-1.2,0.8-2c0-0.5-0.2-1.1-0.5-1.5c-0.3-0.5-0.8-0.8-1.3-1c-0.6-0.2-1.4-0.3-2.7-0.3h-3.6v10.5h1.7v-4.4h1
			c0.6,0,1,0.1,1.4,0.4l1.8,2.4l0.9,1.6h2.1L486.2,15.2z M484.7,8.9c-0.2-0.2-0.4-0.4-0.7-0.5c-0.3-0.1-0.9-0.2-1.7-0.2h-1.9v3.1h2
			c1,0,1.6-0.1,2-0.4c0.4-0.3,0.5-0.7,0.5-1.1C485,9.5,484.9,9.2,484.7,8.9z M486.2,15.2c-0.6-1-1.1-1.7-1.5-2.1
			c-0.2-0.2-0.5-0.4-0.9-0.5c0.9-0.1,1.6-0.4,2.2-1c0.6-0.6,0.8-1.2,0.8-2c0-0.5-0.2-1.1-0.5-1.5c-0.3-0.5-0.8-0.8-1.3-1
			c-0.6-0.2-1.4-0.3-2.7-0.3h-3.6v10.5h1.7v-4.4h1c0.6,0,1,0.1,1.4,0.4l1.8,2.4l0.9,1.6h2.1L486.2,15.2z M484.7,8.9
			c-0.2-0.2-0.4-0.4-0.7-0.5c-0.3-0.1-0.9-0.2-1.7-0.2h-1.9v3.1h2c1,0,1.6-0.1,2-0.4c0.4-0.3,0.5-0.7,0.5-1.1
			C485,9.5,484.9,9.2,484.7,8.9z M486.2,15.2c-0.6-1-1.1-1.7-1.5-2.1c-0.2-0.2-0.5-0.4-0.9-0.5c0.9-0.1,1.6-0.4,2.2-1
			c0.6-0.6,0.8-1.2,0.8-2c0-0.5-0.2-1.1-0.5-1.5c-0.3-0.5-0.8-0.8-1.3-1c-0.6-0.2-1.4-0.3-2.7-0.3h-3.6v10.5h1.7v-4.4h1
			c0.6,0,1,0.1,1.4,0.4l1.8,2.4l0.9,1.6h2.1L486.2,15.2z M484.7,8.9c-0.2-0.2-0.4-0.4-0.7-0.5c-0.3-0.1-0.9-0.2-1.7-0.2h-1.9v3.1h2
			c1,0,1.6-0.1,2-0.4c0.4-0.3,0.5-0.7,0.5-1.1C485,9.5,484.9,9.2,484.7,8.9z M486.2,15.2c-0.6-1-1.1-1.7-1.5-2.1
			c-0.2-0.2-0.5-0.4-0.9-0.5c0.9-0.1,1.6-0.4,2.2-1c0.6-0.6,0.8-1.2,0.8-2c0-0.5-0.2-1.1-0.5-1.5c-0.3-0.5-0.8-0.8-1.3-1
			c-0.6-0.2-1.4-0.3-2.7-0.3h-3.6v10.5h1.7v-4.4h1c0.6,0,1,0.1,1.4,0.4l1.8,2.4l0.9,1.6h2.1L486.2,15.2z"/>
	</g>
	<path class="st1" d="M51.2,51.1c9.6-3.7,13-13.2,13-22.5c0-14.1-6.7-25.2-27-25.2H0v77.6h17.4V53.6h16.8L47,81.1h20.2L51.2,51.1z
		 M35.7,38.2H17.4V18.8h18.3c8.5,0,10.2,5,10.2,9.8C46,33.4,44.3,38.1,35.7,38.2z"/>
	<path class="st1" d="M127.6,2.1h-16.5l-31.5,79h19l5.6-15.7h30.4l5.6,15.7h18.9L127.6,2.1z M108.7,52.5l10.7-30.6l10.7,30.6H108.7z
		"/>
	<path class="st1" d="M202.5,65.7c1.1,5.3,2.5,10.4,4.3,15.3c-0.5,0-1,0-1.6,0h-30.1V3.5h30.1c0.5,0,1.1,0,1.6,0
		c-1.8,5-3.2,10.1-4.3,15.4h-10v46.9H202.5z"/>
	<path class="st1" d="M465.4,57.8c0,13.5-8.4,24.3-31.9,25.1c2-5.2,3.5-10.5,4.7-16c7.2-1.1,10-4.2,10-9.1c0-4.5-2.1-6.8-7.5-8.1
		c0.1-2.5,0.2-5,0.2-7.5c0-2.5-0.1-4.9-0.2-7.3C459.6,37.3,465.4,42.7,465.4,57.8z"/>
	<path class="st1" d="M461.9,5.9v15.7c-6.3-2.4-14.6-4.1-23.7-4.4c-1.2-5.3-2.8-10.5-4.7-15.6c0.6,0,1.2,0,1.8,0
		C443.1,1.6,455.2,3,461.9,5.9z"/>
	<g class="st2">
		<path class="st1" d="M267.1,3.5v77.6h17.4V3.5H267.1z"/>
		<path class="st1" d="M362.5,3.5v50.6c0,9.3-6.5,13.2-17.8,13.2c-11.3,0-17.9-3.9-17.9-13.2V3.5h-17.4v52
			c0,17.2,11.5,27.5,35.2,27.5c23.8,0,35.2-10.2,35.2-27.5v-52H362.5z"/>
		<path class="st1" d="M244.5,42.3c0,20.4-8.1,34.4-27.5,37.9c-1.9-4.9-3.4-9.9-4.5-15.1c11.1-2.3,14.6-11,14.6-22.8
			s-3.5-20.5-14.6-22.8c1.1-5.2,2.6-10.2,4.5-15.1C236.4,7.9,244.5,21.9,244.5,42.3z"/>
		<path class="st1" d="M428,67.4c-1.3,5.2-2.9,10.3-4.9,15.2c-7.4-0.7-16.3-2.3-20.5-4.2V62.8C408.4,65.1,418.1,67.2,428,67.4z"/>
		<path class="st1" d="M430.9,42.3c0,2.1-0.1,4.2-0.2,6.3c-22.6-2.1-29.4-7.2-29.4-22.1c0-12.7,6.6-21.4,21.9-24
			c2,4.8,3.6,9.9,4.8,15c-7.1,0.9-9.8,3.7-9.8,9c0,5.2,3.5,6.7,12.4,7.6C430.8,36.8,430.9,39.5,430.9,42.3z"/>
	</g>
</g>
</svg>
