<svg id="Layer_1" data-name="Layer 1" xmlns="http://www.w3.org/2000/svg" viewBox="0 0 465.43 81.36"><defs><style>.cls-1{fill:#fff;}.cls-2{opacity:0.5;}</style></defs><title>radius-logo-white</title><path class="cls-1" d="M21.06,52V79.49H3.67V1.86H40.93c20.34,0,27,11,27,25.15,0,9.32-3.42,18.79-13,22.51l16,30H50.71L37.82,52H21.06ZM39.38,17.23H21.06V36.64H39.38c8.54-.16,10.25-4.81,10.25-9.63S47.92,17.23,39.38,17.23Z" transform="translate(-3.67)"/><path class="cls-1" d="M138.27,63.81H107.84l-5.59,15.68H83.3l31.52-79h16.46l31.52,79H143.86ZM123.05,20.34L112.34,50.93h21.43Z" transform="translate(-3.67)"/><path class="cls-1" d="M196.18,64.12V17.23h10A114,114,0,0,1,210.5,1.89l-1.59,0H178.79V79.49h30.12l1.59,0a114,114,0,0,1-4.32-15.34h-10Z" transform="translate(-3.67)"/><path class="cls-1" d="M469.1,56.2c0-15.08-5.87-20.51-24.76-22.87,0.15,2.43.24,4.87,0.24,7.34s-0.09,5-.25,7.45c5.42,1.28,7.54,3.58,7.54,8.08,0,5-2.73,8-10,9.15a114,114,0,0,1-4.74,16C460.72,80.54,469.1,69.67,469.1,56.2Z" transform="translate(-3.67)"/><path class="cls-1" d="M465.52,20V4.35C458.85,1.4,446.74,0,439,0l-1.81,0a114,114,0,0,1,4.65,15.56A76.5,76.5,0,0,1,465.52,20Z" transform="translate(-3.67)"/><g class="cls-2"><path class="cls-1" d="M270.73,79.49V1.86h17.39V79.49H270.73Z" transform="translate(-3.67)"/><path class="cls-1" d="M313.06,53.88v-52h17.39V52.48c0,9.32,6.52,13.2,17.86,13.2s17.86-3.88,17.86-13.2V1.86h17.39v52c0,17.23-11.49,27.48-35.24,27.48S313.06,71.11,313.06,53.88Z" transform="translate(-3.67)"/><path class="cls-1" d="M248.18,40.68c0-20.41-8.15-34.39-27.47-37.93a105.46,105.46,0,0,0-4.51,15.09c11.07,2.31,14.59,11,14.59,22.84s-3.51,20.53-14.59,22.84a105.46,105.46,0,0,0,4.51,15.09C240,75.07,248.18,61.09,248.18,40.68Z" transform="translate(-3.67)"/><path class="cls-1" d="M406.23,76.85c4.13,1.89,13,3.51,20.45,4.17a105.47,105.47,0,0,0,4.94-15.22c-9.85-.21-19.5-2.28-25.39-4.64V76.85Z" transform="translate(-3.67)"/><path class="cls-1" d="M405,24.84c0,14.88,6.83,20.05,29.44,22.12,0.12-2.08.19-4.18,0.19-6.29q0-4.15-.31-8.21c-8.85-.93-12.39-2.45-12.39-7.62s2.65-8.12,9.78-9a105.45,105.45,0,0,0-4.8-15C411.59,3.45,405,12.12,405,24.84Z" transform="translate(-3.67)"/></g></svg>