<?xml version="1.0" encoding="UTF-8"?>
<svg width="32px" height="32px" viewBox="0 0 32 32" version="1.1" xmlns="http://www.w3.org/2000/svg" xmlns:xlink="http://www.w3.org/1999/xlink">
    <!-- Generator: Sketch 42 (36781) - http://www.bohemiancoding.com/sketch -->
    <title>search</title>
    <desc>Created with Sketch.</desc>
    <defs>
        <polygon id="path-1" points="29.3494759 29.34864 0.00042 29.34864 0.00042 0.000269983141 29.3494759 0.000269983141"></polygon>
    </defs>
    <g id="assets" stroke="none" stroke-width="1" fill="none" fill-rule="evenodd">
        <g id="search">
            <g id="Page-1" transform="translate(1.000000, 1.000000)">
                <mask id="mask-2" fill="white">
                    <use xlink:href="#path-1"></use>
                </mask>
                <g id="Clip-2"></g>
                <path d="M4.70052,15.83232 C1.63092,12.76272 1.63092,7.76952 4.70052,4.69992 C6.23532,3.16512 8.25132,2.39832 10.26732,2.39832 C12.28212,2.39832 14.29932,3.16632 15.83292,4.69992 C18.90252,7.76952 18.90252,12.76272 15.83292,15.83232 C14.34612,17.31912 12.36972,18.13752 10.26732,18.13752 C8.16492,18.13752 6.18732,17.31912 4.70052,15.83232 M28.77132,26.22432 L18.35052,16.59072 C21.50532,12.56352 21.23652,6.70992 17.52972,3.00312 C13.52532,-1.00008 7.00932,-1.00128 3.00372,3.00312 C-1.00068,7.00752 -1.00068,13.52472 3.00372,17.52912 C4.94412,19.46952 7.52412,20.53752 10.26732,20.53752 C12.59172,20.53752 14.79252,19.76352 16.59252,18.35112 L26.22492,28.76952 C26.25612,28.80432 26.29092,28.83912 26.32572,28.86912 C27.05532,29.54592 28.19532,29.50152 28.87092,28.76952 C29.54652,28.03992 29.50092,26.89992 28.77132,26.22432" id="Fill-1" fill="#000000" mask="url(#mask-2)"></path>
            </g>
        </g>
    </g>
</svg>