<?xml version="1.0" encoding="UTF-8"?>
<svg width="104px" height="104px" viewBox="0 0 104 104" version="1.1" xmlns="http://www.w3.org/2000/svg" xmlns:xlink="http://www.w3.org/1999/xlink">
    <!-- Generator: Sketch 42 (36781) - http://www.bohemiancoding.com/sketch -->
    <title>Artboard Copy 2</title>
    <desc>Created with Sketch.</desc>
    <defs></defs>
    <g id="Styles" stroke="none" stroke-width="1" fill="none" fill-rule="evenodd">
        <g id="Artboard-Copy-2">
            <g id="Group">
                <circle id="Oval" fill="#ECEFF1" cx="52" cy="52" r="52"></circle>
                <path d="M74.5123743,68.8453287 L60.8682645,56.0382256 C62.8152801,53.1642025 64.0002897,49.7321749 64.0002897,46.0001448 C64.0002897,36.0610649 55.9392248,28 46.0001448,28 C36.0610649,28 28,36.0610649 28,46.0001448 C28,55.9392248 36.0610649,64.0002897 46.0001448,64.0002897 C50.0921778,64.0002897 53.8332079,62.5872783 56.8572322,60.2832598 L68.8483287,74.5123743 C70.504342,76.3513891 73.2073638,76.5073903 74.857377,74.857377 C76.5073903,73.2073638 76.3513891,70.501342 74.5123743,68.8453287 L74.5123743,68.8453287 Z M46.0001448,58.0002414 C39.3730915,58.0002414 34.0000483,52.6271982 34.0000483,46.0001448 C34.0000483,39.3730915 39.3730915,34.0000483 46.0001448,34.0000483 C52.6271982,34.0000483 58.0002414,39.3730915 58.0002414,46.0001448 C58.0002414,52.6271982 52.6271982,58.0002414 46.0001448,58.0002414 L46.0001448,58.0002414 Z" id="search" fill="#C4CACE"></path>
            </g>
        </g>
    </g>
</svg>